<?xml version="1.0" encoding="UTF-8" standalone="no"?>
<svg width="400px" height="400px" viewBox="0 0 400 400" version="1.1" xmlns="http://www.w3.org/2000/svg" xmlns:xlink="http://www.w3.org/1999/xlink">
    <!-- Generator: Sketch 3.6.1 (26313) - http://www.bohemiancoding.com/sketch -->
    <title>exclamation</title>
    <desc>Created with Sketch.</desc>
    <defs></defs>
    <g id="Page-1" stroke="none" stroke-width="1" fill="none" fill-rule="evenodd">
        <g id="exclamation">
            <circle id="Oval-1" fill="#DF5656" cx="200" cy="200" r="200"></circle>
            <path d="M219.905469,322.675 C214.495312,328.078906 207.867187,330.771875 200,330.771875 C192.135937,330.771875 185.498437,328.002344 180.096875,322.442969 C174.696094,316.735156 172,310.175 172,302.775781 C172,295.060938 174.695312,288.507031 180.096875,283.103125 C185.497656,277.710938 192.135156,275 200,275 C208.019531,275 214.663281,277.621875 219.905469,282.870313 C225.3,288.275 228.002344,294.905469 228.002344,302.775781 C228.002344,310.639844 225.3,317.283594 219.905469,322.675 L219.905469,322.675 Z" id="Path" fill="#FFFFFF"></path>
            <path d="M226.613281,107.945312 L208.560156,246.646094 C207.94375,252.360156 204.938281,255.221094 199.5375,255.221094 C197.222656,255.221094 195.211719,254.290625 193.523438,252.444531 C191.821875,250.585156 190.817969,248.654687 190.510937,246.646875 L172.458594,107.946094 C172.148438,105.175781 172,101.708594 172,97.5375 C172,90.7453125 174.314844,84.5023437 178.940625,78.78125 C183.570312,72.925 190.427344,70 199.5375,70 C208.33125,70 215.120313,72.8546875 219.904688,78.5617187 C224.689844,84.2757812 227.075,90.590625 227.075,97.5375 C227.075,102.011719 226.920313,105.491406 226.613281,107.945312 L226.613281,107.945312 Z" id="Path" fill="#FFFFFF"></path>
        </g>
    </g>
</svg>