<?xml version="1.0" encoding="UTF-8" standalone="no"?>
<svg width="649px" height="649px" viewBox="0 0 649 649" version="1.1" xmlns="http://www.w3.org/2000/svg" xmlns:xlink="http://www.w3.org/1999/xlink">
    <!-- Generator: Sketch 3.6.1 (26313) - http://www.bohemiancoding.com/sketch -->
    <title>hint</title>
    <desc>Created with Sketch.</desc>
    <defs></defs>
    <g id="Page-1" stroke="none" stroke-width="1" fill="none" fill-rule="evenodd">
        <g id="hint">
            <path d="M324.5,649 C503.716401,649 649,503.716401 649,324.5 C649,145.283599 503.716401,0 324.5,0 C145.283599,0 0,145.283599 0,324.5 C0,503.716401 145.283599,649 324.5,649 Z" id="Oval-1" fill="#00D1C1"></path>
            <path d="M493.97,237.97 C493.978,191.343 475.041,149.03 444.476,118.488 C413.94,87.93 371.62,68.992 325,69 C278.381,68.992 236.06,87.93 205.526,118.495 C174.96,149.03 156.023,191.343 156.03,237.97 C156.023,269.157 164.54,298.442 179.328,323.508 C179.336,323.516 179.344,323.523 179.344,323.523 C179.391,323.617 179.438,323.712 179.486,323.79 L179.501,323.783 C189.873,342.232 204.795,360.485 216.911,377.905 C222.993,386.619 228.344,395.074 232.045,402.805 C235.777,410.545 237.749,417.459 237.836,423.015 L237.836,516.638 C237.844,545.53 261.244,568.93 290.136,568.938 L300.688,568.938 C306.338,576.223 315.076,581 325,581 C334.924,581 343.662,576.223 349.312,568.939 L359.864,568.939 C388.757,568.931 412.157,545.531 412.164,516.639 L412.164,410.695 L400.095,410.695 L260.332,410.695 C258.894,404.425 256.655,398.319 253.811,392.363 C246.857,377.936 236.791,363.981 226.828,350.357 C216.856,336.787 206.972,323.563 200.418,311.76 L200.308,311.564 L200.253,311.485 C187.493,289.94 180.177,264.867 180.169,237.97 C180.177,197.936 196.363,161.806 222.592,135.562 C248.836,109.325 284.966,93.147 325,93.138 C365.034,93.146 401.164,109.325 427.408,135.562 C453.636,161.806 469.823,197.935 469.83,237.97 C469.823,264.867 462.507,289.94 449.739,311.485 L449.652,311.635 L449.566,311.792 C439.681,329.62 426.582,342.209 412.234,350.475 C397.894,358.725 382.242,362.599 367.525,362.599 C350.356,362.615 334.641,357.311 323.687,348.259 C318.187,343.733 313.827,338.296 310.778,331.939 C307.736,325.574 305.977,318.235 305.969,309.632 C305.969,308.752 306.15,307.746 306.189,306.834 C324.71,290.255 375.643,291.48 386.022,236.634 C392.615,201.738 374.346,172.995 371.274,152.149 C277.399,144.103 234.489,228.587 279.458,295.573 C280.637,297.325 281.603,298.708 282.42,299.957 C282.075,303.233 281.831,306.471 281.831,309.63 C281.823,321.597 284.361,332.676 289.005,342.356 C295.966,356.916 307.533,368.153 321.276,375.554 C335.035,382.98 350.994,386.728 367.526,386.736 C386.439,386.728 406.177,381.793 424.273,371.39 C442.275,361.05 458.571,345.224 470.507,323.789 C470.515,323.774 470.523,323.757 470.538,323.742 C470.586,323.648 470.64,323.569 470.688,323.482 L470.68,323.475 C485.468,298.418 493.978,269.148 493.97,237.97 L493.97,237.97 Z M261.974,434.834 L388.025,434.834 L388.025,472.409 L261.974,445.607 L261.974,434.834 L261.974,434.834 Z M261.974,462.06 L388.025,488.863 L388.025,516.639 C388.025,518.36 387.813,520.026 387.522,521.653 L261.974,494.96 L261.974,462.06 L261.974,462.06 Z M261.974,511.422 L379.838,536.48 C379.814,536.504 379.798,536.527 379.774,536.551 C374.644,541.667 367.681,544.793 359.863,544.801 L290.135,544.801 C282.317,544.793 275.355,541.666 270.224,536.551 C265.109,531.42 261.982,524.458 261.974,516.64 L261.974,511.422 L261.974,511.422 Z M297.514,268.771 C297.514,262.281 297.514,251.453 309.426,220.039 C321.338,188.632 351.66,168.061 353.828,172.39 C315.932,217.878 308.05,269.958 307.257,273.109 C306.174,277.446 297.514,275.277 297.514,268.771 L297.514,268.771 Z" id="Shape" fill="#FFFFFF"></path>
        </g>
    </g>
</svg>